<?xml version="1.0" standalone="no"?>
<!DOCTYPE svg PUBLIC "-//W3C//DTD SVG 20010904//EN"
 "http://www.w3.org/TR/2001/REC-SVG-20010904/DTD/svg10.dtd">
<svg version="1.0" xmlns="http://www.w3.org/2000/svg"
 width="1080.000000pt" height="1080.000000pt" viewBox="0 0 1080.000000 1080.000000"
 preserveAspectRatio="xMidYMid meet">
<metadata>
Created by potrace 1.14, written by Peter Selinger 2001-2017
</metadata>
<g transform="translate(0.000000,1080.000000) scale(0.100000,-0.100000)"
fill="#000000" stroke="none">
<path d="M0 5400 l0 -5400 5400 0 5400 0 0 5400 0 5400 -5400 0 -5400 0 0
-5400z m6959 4272 c57 -6 116 -15 130 -21 14 -5 58 -17 96 -26 148 -36 395
-146 535 -239 340 -226 568 -486 747 -849 24 -48 43 -92 43 -98 0 -6 6 -25 14
-42 18 -40 39 -111 61 -202 9 -38 20 -86 25 -105 41 -161 38 -587 -5 -785 -43
-194 -53 -230 -76 -277 -5 -10 -9 -23 -9 -28 0 -6 -10 -32 -21 -58 -12 -26
-30 -65 -40 -87 -22 -50 -81 -155 -120 -216 -16 -25 -29 -48 -29 -52 0 -3 32
-39 71 -79 214 -222 336 -425 449 -748 49 -139 84 -543 61 -705 -32 -229 -46
-291 -91 -420 -34 -94 -102 -243 -143 -309 -24 -39 -24 -39 -19 -262 5 -224
-2 -324 -34 -479 -22 -111 -53 -226 -68 -257 -8 -15 -17 -41 -21 -58 -6 -26
-29 -79 -93 -210 -9 -19 -20 -37 -24 -38 -5 -2 -8 -8 -8 -13 0 -9 -99 -159
-137 -208 -140 -179 -288 -325 -442 -436 -125 -91 -229 -150 -382 -218 -52
-24 -244 -87 -262 -87 -9 0 -18 -4 -21 -9 -5 -8 101 -180 134 -218 5 -7 10
-15 10 -19 0 -3 36 -60 80 -125 44 -66 80 -123 80 -128 0 -5 4 -11 8 -13 4 -2
41 -55 81 -118 40 -63 108 -169 152 -235 44 -66 82 -127 86 -135 4 -8 9 -17
12 -20 17 -14 59 -89 54 -94 -4 -3 -95 -6 -204 -6 l-198 0 -60 92 c-33 51 -67
102 -76 113 -8 10 -15 23 -15 27 0 5 -5 14 -11 21 -5 7 -29 41 -51 77 -23 36
-78 121 -123 190 -97 150 -137 211 -251 393 l-86 137 -1317 0 -1317 0 -67 -99
c-37 -54 -67 -103 -67 -109 0 -6 -4 -12 -8 -14 -4 -2 -19 -21 -32 -43 -13 -22
-67 -106 -120 -187 -52 -81 -129 -200 -170 -264 -147 -231 -179 -279 -187
-289 -5 -5 -12 -18 -16 -28 -6 -15 -25 -17 -212 -17 -113 0 -205 4 -205 9 0 9
109 180 127 199 7 7 13 18 13 23 0 5 5 15 11 22 6 7 68 102 139 212 71 110
133 205 138 210 4 6 11 17 15 25 9 19 30 53 37 60 3 3 22 30 41 60 20 30 66
101 102 156 77 118 84 132 66 138 -88 26 -274 90 -296 101 -15 8 -34 15 -40
15 -7 0 -13 5 -13 10 0 6 -5 10 -12 10 -15 0 -186 97 -205 116 -8 8 -19 14
-24 14 -6 0 -16 6 -23 13 -8 6 -24 19 -36 27 -106 71 -341 300 -441 430 -53
70 -179 263 -179 275 0 2 -18 43 -41 92 -22 48 -45 97 -50 108 -38 85 -94 320
-118 500 -14 103 -14 379 0 445 12 57 18 39 -78 220 -22 41 -52 109 -67 150
-15 41 -31 84 -36 95 -5 11 -12 45 -16 75 -3 30 -10 61 -15 70 -11 22 -37 220
-43 330 -8 145 22 486 44 515 4 6 11 35 14 65 4 30 11 64 16 75 5 11 18 47 30
80 24 68 111 248 122 253 5 2 8 9 8 15 0 32 162 238 287 367 29 30 53 61 53
69 0 8 -17 41 -39 75 -44 70 -141 255 -141 269 0 5 -7 23 -14 40 -35 76 -84
254 -105 377 -26 158 -31 218 -31 361 0 146 3 178 36 374 20 117 76 316 96
340 4 5 8 15 8 22 0 30 171 351 199 373 4 3 26 32 49 65 70 101 294 332 427
441 125 102 314 205 491 268 115 40 197 57 419 84 105 14 2856 8 2984 -6z"/>
<path d="M4055 5613 c-29 -4 -126 -22 -235 -43 -30 -6 -64 -15 -75 -20 -11 -5
-47 -18 -80 -28 -68 -23 -221 -100 -308 -156 -157 -101 -333 -268 -452 -431
-16 -22 -35 -46 -42 -53 -7 -7 -13 -20 -13 -28 0 -8 -4 -14 -9 -14 -5 0 -14
-12 -20 -27 -6 -16 -28 -59 -49 -98 -38 -70 -77 -167 -105 -260 -30 -102 -30
-103 5 -148 41 -52 178 -184 240 -231 82 -62 232 -156 250 -156 10 0 18 -4 18
-10 0 -5 5 -10 11 -10 6 0 25 -6 42 -14 30 -14 152 -55 222 -76 201 -59 541
-51 775 19 67 20 111 35 145 51 11 5 43 19 70 31 113 49 274 165 398 287 192
188 330 442 396 727 17 74 30 293 31 508 l0 187 -592 -1 c-326 -1 -606 -4
-623 -6z"/>
<path d="M5633 5323 c4 -273 12 -375 36 -458 46 -160 91 -265 174 -411 60
-107 237 -300 352 -385 90 -67 222 -149 239 -149 9 0 16 -4 16 -10 0 -5 5 -10
11 -10 6 0 25 -6 42 -14 312 -140 712 -154 1057 -39 137 45 348 161 436 239
129 115 163 147 205 198 45 53 49 62 43 95 -7 45 -35 143 -44 156 -4 6 -13 28
-20 50 -53 166 -215 409 -377 565 -84 81 -245 210 -262 210 -6 0 -11 4 -11 8
0 5 -62 40 -137 77 -172 85 -162 81 -203 90 -19 4 -39 11 -45 15 -5 5 -32 11
-60 15 -27 4 -54 10 -60 14 -45 28 -161 33 -768 38 l-628 4 4 -298z"/>
<path d="M5206 4062 c-49 -65 -221 -228 -286 -272 -12 -8 -39 -30 -59 -47 -20
-18 -39 -33 -43 -33 -4 0 -27 -13 -51 -30 -115 -78 -363 -184 -477 -205 -19
-3 -44 -10 -55 -15 -52 -22 -252 -42 -421 -42 -175 0 -396 23 -418 43 -6 5
-22 9 -36 9 -28 0 -193 51 -250 77 -36 16 -138 67 -200 99 -35 18 -201 131
-210 143 -3 4 -22 20 -42 35 l-38 28 0 -37 c0 -47 17 -151 37 -230 22 -90 45
-168 54 -185 4 -8 33 -67 63 -130 66 -134 62 -128 144 -239 78 -106 244 -275
337 -344 39 -28 72 -54 75 -57 9 -11 110 -70 119 -70 5 0 11 -3 13 -7 3 -8
151 -83 163 -83 4 0 21 -6 38 -14 18 -8 59 -22 92 -31 33 -9 74 -20 90 -25
120 -37 327 -48 923 -49 l492 -1 0 885 c0 487 -2 885 -4 885 -3 0 -25 -26 -50
-58z"/>
<path d="M5633 3240 l2 -885 585 0 c584 0 610 1 785 36 28 6 64 13 80 16 17 3
35 9 40 13 6 5 27 11 48 15 20 4 40 11 43 16 3 5 12 9 21 9 22 0 165 69 248
120 208 127 408 321 552 535 114 170 224 484 236 677 3 54 3 56 -17 46 -11 -6
-31 -22 -45 -35 -72 -67 -311 -210 -436 -260 -94 -37 -209 -73 -236 -73 -11 0
-27 -4 -37 -9 -39 -21 -252 -43 -420 -43 -163 0 -364 20 -417 42 -11 5 -36 11
-55 14 -67 12 -206 61 -302 108 -113 55 -265 147 -292 177 -11 12 -23 21 -28
21 -22 0 -210 178 -327 310 l-30 35 2 -885z"/>
</g>
</svg>
